<svg width="320" height="198" viewBox="0 0 320 198" fill="none" xmlns="http://www.w3.org/2000/svg">
<g clip-path="url(#clip0_1_6)">
<path d="M297.964 197.365H22.9938C10.5388 197.365 0 186.827 0 174.371V22.9938C0 10.5388 10.5388 0 22.9938 0H297.006C309.461 0 320 10.5388 320 22.9938V174.371C320 186.826 310.419 197.365 297.964 197.365ZM22.9938 15.3287C19.1613 15.3287 15.3287 19.1613 15.3287 22.9938V174.371C15.3287 179.161 19.1613 182.036 22.9938 182.036H297.006C301.796 182.036 304.671 178.204 304.671 174.371V22.9938C304.671 18.2038 300.839 15.3287 297.006 15.3287H22.9938ZM45.9875 151.377V45.9875H76.6463L107.305 84.3125L137.964 45.9875H168.622V151.377H137.964V91.0175L107.305 129.342L76.6463 91.0175V151.377H45.9875ZM238.563 151.377L192.575 100.599H223.234V45.9875H253.892V99.6412H284.551L238.563 151.377Z" fill="url(#paint0_linear_1_6)"/>
<path d="M276.849 136.756C267.53 136.756 268.12 140.786 268.12 140.786V144.973H276.982V146.285H264.59C264.59 146.285 258.625 145.55 258.625 155.007C258.625 164.463 263.892 164.079 263.892 164.079H266.933V159.667C266.933 159.667 266.762 154.4 272.052 154.4H280.927C280.927 154.4 285.878 154.479 285.878 149.607V141.613C285.878 141.613 286.628 136.741 276.898 136.741L276.849 136.756ZM271.951 139.561C272.266 139.553 272.576 139.639 272.843 139.807C273.109 139.976 273.319 140.219 273.447 140.507C273.575 140.795 273.615 141.115 273.561 141.425C273.507 141.736 273.363 142.024 273.146 142.252C272.928 142.48 272.648 142.639 272.341 142.708C272.034 142.778 271.712 142.754 271.418 142.641C271.124 142.528 270.87 142.33 270.689 142.072C270.507 141.815 270.406 141.509 270.398 141.194V141.168C270.398 140.745 270.566 140.34 270.865 140.041C271.164 139.742 271.569 139.574 271.992 139.574L271.951 139.561Z" fill="url(#paint1_linear_1_6)"/>
<path d="M277.112 173.257C286.43 173.257 285.841 169.214 285.841 169.214V165.041H276.98V163.728H289.41C289.41 163.728 295.375 164.395 295.375 154.993C295.375 145.592 290.108 145.921 290.108 145.921H287.027V150.275C287.027 150.275 287.198 155.542 281.909 155.542H273.03C273.03 155.542 268.075 155.467 268.075 160.339V168.388C268.075 168.388 267.324 173.259 277.055 173.259H277.108L277.112 173.257ZM282.01 170.439C281.695 170.447 281.384 170.361 281.118 170.193C280.852 170.024 280.641 169.781 280.513 169.493C280.385 169.205 280.346 168.885 280.4 168.575C280.453 168.264 280.598 167.976 280.815 167.748C281.032 167.52 281.312 167.361 281.62 167.292C281.927 167.222 282.248 167.246 282.542 167.359C282.836 167.472 283.09 167.67 283.272 167.928C283.453 168.185 283.555 168.491 283.563 168.806V168.846C283.563 169.268 283.395 169.673 283.096 169.972C282.797 170.271 282.392 170.439 281.969 170.439H282.01Z" fill="url(#paint2_linear_1_6)"/>
</g>
<defs>
<linearGradient id="paint0_linear_1_6" x1="-2.88662e-06" y1="8" x2="323" y2="190" gradientUnits="userSpaceOnUse">
<stop stop-color="#306998"/>
<stop offset="1" stop-color="#FFD43B"/>
</linearGradient>
<linearGradient id="paint1_linear_1_6" x1="262.257" y1="140.33" x2="279.696" y2="157.729" gradientUnits="userSpaceOnUse">
<stop stop-color="#306998"/>
<stop offset="1" stop-color="#366994"/>
</linearGradient>
<linearGradient id="paint2_linear_1_6" x1="272.574" y1="151.664" x2="292.498" y2="169.058" gradientUnits="userSpaceOnUse">
<stop stop-color="#FFE873"/>
<stop offset="1" stop-color="#FFC331"/>
</linearGradient>
<clipPath id="clip0_1_6">
<rect width="320" height="197.5" fill="white"/>
</clipPath>
</defs>
</svg>
