<svg width="300" height="200" viewBox="0 0 300 200" fill="none" xmlns="http://www.w3.org/2000/svg">
<path d="M68.826 81.5076L98.0334 141.979H113.864L142.908 81.4889H144.054V156H166V44H141.456L106.481 116.7H105.683L70.7077 44H46V156H67.6806V81.5076H68.826Z" fill="url(#paint0_linear_5_115)"/>
<path d="M219 67C225.075 67 230 62.0751 230 56C230 49.9249 225.075 45 219 45C212.925 45 208 49.9249 208 56C208 62.0751 212.925 67 219 67Z" fill="url(#paint1_linear_5_115)"/>
<path d="M186 80C186 81.5913 186.685 83.1174 187.904 84.2426C189.123 85.3679 190.776 86 192.5 86H213V133.443L198.427 117.908C197.86 117.304 197.187 116.824 196.446 116.496C195.705 116.169 194.911 116 194.109 116C193.307 116 192.513 116.169 191.772 116.496C191.031 116.824 190.358 117.304 189.792 117.908C189.224 118.512 188.773 119.229 188.466 120.018C188.158 120.807 188 121.653 188 122.508C188 123.362 188.158 124.208 188.466 124.997C188.773 125.787 189.224 126.504 189.792 127.107L214.184 153.092C214.751 153.696 215.424 154.176 216.164 154.504C216.905 154.831 217.699 155 218.502 155C219.304 155 220.098 154.831 220.839 154.504C221.58 154.176 222.253 153.696 222.819 153.092L247.212 127.107C247.779 126.503 248.228 125.786 248.535 124.997C248.842 124.208 249 123.362 249 122.508C249 121.654 248.842 120.808 248.535 120.019C248.228 119.229 247.779 118.512 247.212 117.908C246.645 117.304 245.972 116.825 245.231 116.499C244.49 116.172 243.696 116.003 242.894 116.003C242.092 116.003 241.298 116.172 240.558 116.499C239.817 116.825 239.144 117.304 238.577 117.908L225 132.38V86H244.5C246.224 86 247.877 85.3679 249.096 84.2426C250.315 83.1174 251 81.5913 251 80C251 78.4087 250.315 76.8826 249.096 75.7574C247.877 74.6321 246.224 74 244.5 74H192.5C190.776 74 189.123 74.6321 187.904 75.7574C186.685 76.8826 186 78.4087 186 80Z" fill="url(#paint2_linear_5_115)"/>
<path fill-rule="evenodd" clip-rule="evenodd" d="M10.9835 9.76311C18.0161 3.51189 27.5544 0 37.5 0H262.5C272.446 0 281.984 3.51189 289.017 9.76311C296.049 16.0143 300 24.4928 300 33.3333V166.667C300 175.507 296.049 183.986 289.017 190.237C281.984 196.488 272.446 200 262.5 200H37.5C27.5544 200 18.0161 196.488 10.9835 190.237C3.95088 183.986 0 175.507 0 166.667V33.3333C0 24.4928 3.95088 16.0143 10.9835 9.76311ZM275.758 21.5482C272.242 18.4226 267.473 16.6667 262.5 16.6667H37.5C32.5272 16.6667 27.7581 18.4226 24.2417 21.5482C20.7254 24.6738 18.75 28.9131 18.75 33.3333V166.667C18.75 171.087 20.7254 175.326 24.2417 178.452C27.7581 181.577 32.5272 183.333 37.5 183.333H262.5C267.473 183.333 272.242 181.577 275.758 178.452C279.275 175.326 281.25 171.087 281.25 166.667V33.3333C281.25 28.9131 279.275 24.6738 275.758 21.5482Z" fill="url(#paint3_linear_5_115)"/>
<path d="M255.856 139.625C246.981 139.625 247.542 143.462 247.542 143.462V147.45H255.982V148.7H244.181C244.181 148.7 238.5 148 238.5 157.006C238.5 166.012 243.516 165.646 243.516 165.646H246.412V161.445C246.412 161.445 246.25 156.429 251.287 156.429H259.74C259.74 156.429 264.455 156.504 264.455 151.864V144.25C264.455 144.25 265.17 139.61 255.902 139.61L255.856 139.625ZM251.191 142.296C251.491 142.289 251.787 142.37 252.041 142.531C252.294 142.691 252.495 142.923 252.616 143.197C252.738 143.472 252.776 143.776 252.725 144.072C252.674 144.368 252.536 144.641 252.329 144.859C252.122 145.076 251.856 145.228 251.563 145.294C251.27 145.36 250.964 145.337 250.684 145.229C250.404 145.121 250.162 144.933 249.989 144.688C249.816 144.442 249.72 144.151 249.712 143.851V143.826C249.712 143.424 249.872 143.038 250.157 142.753C250.442 142.469 250.828 142.309 251.23 142.309L251.191 142.296Z" fill="url(#paint4_linear_5_115)"/>
<path d="M256.106 174.388C264.981 174.388 264.42 170.538 264.42 170.538V166.563H255.981V165.313H267.819C267.819 165.313 273.5 165.948 273.5 156.994C273.5 148.04 268.484 148.354 268.484 148.354H265.55V152.5C265.55 152.5 265.712 157.516 260.675 157.516H252.219C252.219 157.516 247.5 157.445 247.5 162.085V169.75C247.5 169.75 246.785 174.39 256.052 174.39H256.102L256.106 174.388ZM260.771 171.704C260.471 171.711 260.176 171.63 259.922 171.469C259.668 171.309 259.468 171.077 259.346 170.803C259.224 170.528 259.187 170.224 259.238 169.928C259.289 169.632 259.426 169.359 259.633 169.141C259.84 168.924 260.107 168.772 260.4 168.706C260.692 168.64 260.998 168.663 261.278 168.771C261.558 168.879 261.8 169.067 261.973 169.312C262.146 169.558 262.242 169.849 262.25 170.149V170.186C262.25 170.589 262.09 170.975 261.806 171.259C261.521 171.544 261.135 171.704 260.732 171.704H260.771Z" fill="url(#paint5_linear_5_115)"/>
<defs>
<linearGradient id="paint0_linear_5_115" x1="34" y1="30" x2="268.5" y2="168" gradientUnits="userSpaceOnUse">
<stop stop-color="#306998"/>
<stop offset="1" stop-color="#FFD43B"/>
</linearGradient>
<linearGradient id="paint1_linear_5_115" x1="34" y1="30" x2="268.5" y2="168" gradientUnits="userSpaceOnUse">
<stop stop-color="#306998"/>
<stop offset="1" stop-color="#FFD43B"/>
</linearGradient>
<linearGradient id="paint2_linear_5_115" x1="34" y1="30" x2="268.5" y2="168" gradientUnits="userSpaceOnUse">
<stop stop-color="#306998"/>
<stop offset="1" stop-color="#FFD43B"/>
</linearGradient>
<linearGradient id="paint3_linear_5_115" x1="34" y1="30" x2="268.5" y2="168" gradientUnits="userSpaceOnUse">
<stop stop-color="#306998"/>
<stop offset="1" stop-color="#FFD43B"/>
</linearGradient>
<linearGradient id="paint4_linear_5_115" x1="241.959" y1="143.029" x2="258.567" y2="159.599" gradientUnits="userSpaceOnUse">
<stop stop-color="#306998"/>
<stop offset="1" stop-color="#366994"/>
</linearGradient>
<linearGradient id="paint5_linear_5_115" x1="251.784" y1="153.823" x2="270.76" y2="170.389" gradientUnits="userSpaceOnUse">
<stop stop-color="#FFE873"/>
<stop offset="1" stop-color="#FFC331"/>
</linearGradient>
</defs>
</svg>
